<svg width="339" height="216" viewBox="0 0 339 216" fill="none" xmlns="http://www.w3.org/2000/svg">
<path d="M328 100H10C4.47715 100 0 104.477 0 110V206C0 211.523 4.47715 216 10 216H328C333.523 216 338 211.523 338 206V110C338 104.477 333.523 100 328 100Z" fill="#D385D6"/>
<mask id="mask0_2_75" style="mask-type:luminance" maskUnits="userSpaceOnUse" x="1" y="1" width="337" height="206">
<path d="M338 9.84223V198.158C338 203.027 333.876 207 328.752 207H10.2483C5.15548 207 1 203.057 1 198.158V9.84223C1 4.94316 5.15548 1 10.2483 1H328.752C333.876 1 338 4.94316 338 9.84223Z" fill="white"/>
</mask>
<g mask="url(#mask0_2_75)">
<path d="M1.09103 134.251H48.2072V158.345H96.5108V203.699H144.846V179.886H191.368V112.647H241.484V127.499H289.163V144.499H338.216H359.15V-2.93359H-13.2812V134.967L1.09103 134.251Z" fill="#010102"/>
</g>
<path d="M27.5263 20.1331C26.6455 20.1331 25.7646 20.1331 24.9152 20.1331C24.8523 20.1331 24.7894 20.0391 24.7579 19.9451C24.6006 19.2242 24.286 18.5973 23.7197 18.1271C23.1849 17.657 22.5243 17.4062 21.8321 17.3435C20.9513 17.2495 20.0704 17.3122 19.2524 17.657C18.0884 18.1585 17.5851 19.6003 18.2143 20.666C18.4974 21.1361 18.9378 21.3869 19.4412 21.5436C20.1648 21.763 20.9198 21.951 21.6748 22.1078C22.9332 22.3585 24.2231 22.5466 25.3871 23.1108C26.5511 23.6436 27.4005 24.4585 27.6836 25.7436C28.2499 28.1571 27.0859 30.4451 24.7579 31.4481C23.4995 31.981 22.1782 32.1377 20.8254 32.0436C19.5985 31.9496 18.403 31.6675 17.3334 31.0093C15.729 30.0063 14.911 28.5332 14.7852 26.6839C14.7852 26.6212 14.7852 26.5585 14.7852 26.4645C14.8795 26.4645 14.9425 26.4645 15.0054 26.4645C15.7919 26.4645 16.5784 26.4958 17.3334 26.4958C17.4592 26.4958 17.5536 26.4958 17.5536 26.6526C17.7424 28.2511 18.8749 29.2854 20.2906 29.6302C21.4232 29.8809 22.5557 29.8496 23.6568 29.3794C24.695 28.9406 25.2612 27.8123 24.9781 26.7779C24.8523 26.3078 24.5691 25.9317 24.1602 25.6809C23.4995 25.2421 22.7445 25.0854 21.958 24.9287C20.9513 24.7093 19.9446 24.5525 18.9693 24.3018C18.2143 24.1137 17.4592 23.8316 16.83 23.3615C15.7289 22.6093 15.2256 21.5436 15.1627 20.2271C15.0683 18.0644 16.1694 16.3406 18.1828 15.5883C20.5737 14.7107 22.9332 14.7734 25.1669 16.0585C26.614 16.9047 27.3376 18.2525 27.4949 19.8824C27.5264 19.9137 27.5263 20.0077 27.5263 20.1331Z" fill="white"/>
<path d="M53.9506 30.1306C53.8247 30.7575 53.7304 31.3217 53.636 31.8859C52.8809 31.8859 52.1574 31.8859 51.4023 31.8859C51.4023 26.3067 51.4023 20.7276 51.4023 15.1484C52.2518 15.1484 53.1012 15.1484 53.982 15.1484C53.982 17.2171 53.982 19.3171 53.982 21.3858C54.0135 21.3858 54.0135 21.4171 54.045 21.4171C54.0764 21.3858 54.1079 21.3231 54.1393 21.2918C55.3033 19.8813 56.8449 19.3798 58.6066 19.5365C59.8021 19.6306 60.8717 20.038 61.7841 20.7903C62.8222 21.6679 63.3885 22.7962 63.6716 24.1127C63.9548 25.5231 63.8919 26.9022 63.4514 28.25C62.6335 30.7262 60.2425 32.2306 57.6314 32.0426C56.1213 31.9172 54.8944 31.3844 53.9506 30.1306ZM53.9506 25.8679C53.982 26.0246 53.982 26.3381 54.045 26.6515C54.1079 26.9336 54.1708 27.247 54.2652 27.5291C54.7685 28.9709 55.9955 29.8485 57.537 29.8799C59.0471 29.8799 60.3684 29.0023 60.8717 27.5605C61.2807 26.3694 61.3122 25.1784 60.8717 24.0186C60.3684 22.7022 59.4246 21.8873 58.0089 21.7306C56.5932 21.5739 55.4292 22.044 54.6427 23.2977C54.1393 24.0186 53.982 24.8649 53.9506 25.8679Z" fill="white"/>
<path d="M38.0651 23.3314C38.0966 23.1747 38.0966 23.018 38.1595 22.8612C38.5055 21.4508 39.4179 20.5418 40.7392 19.9776C41.8403 19.5075 43.0357 19.4135 44.1997 19.5388C44.7975 19.6015 45.4267 19.7269 46.0244 19.9149C47.5659 20.4478 48.3839 21.6075 48.6041 23.206C48.6356 23.4881 48.6356 23.7389 48.6356 24.0209C48.6356 25.6195 48.6356 27.1866 48.6356 28.7852C48.6356 28.8792 48.6356 29.0046 48.667 29.0986C48.7299 29.4434 48.8873 29.5687 49.2018 29.6314C49.3277 29.6628 49.4535 29.6628 49.5794 29.6628C49.7052 29.6628 49.7996 29.6628 49.9569 29.6628C49.9569 30.415 49.9569 31.1359 49.9569 31.8882C49.3906 31.8882 48.8558 31.8882 48.2895 31.8882C48.0693 31.8882 47.8176 31.8568 47.6289 31.7941C46.8424 31.5747 46.4649 31.1046 46.3705 30.227C46.3705 30.1643 46.3705 30.1016 46.339 30.0076C46.3076 30.0389 46.2761 30.0389 46.2761 30.0389C45.3952 31.2926 44.1683 31.9508 42.6582 32.0135C41.8088 32.0449 40.9909 31.9822 40.2044 31.7001C38.0651 30.9792 37.3415 29.1613 37.9078 27.2493C38.2539 26.0583 39.0718 25.3687 40.2044 24.9299C41.0538 24.6165 41.9032 24.5224 42.7841 24.4911C43.7908 24.4911 44.8289 24.4911 45.8357 24.4911C45.93 24.4911 45.993 24.4911 46.0873 24.4911C46.1503 23.6135 46.1503 22.7359 45.3952 22.109C45.0177 21.7956 44.5773 21.6388 44.0739 21.5762C43.3503 21.4821 42.6582 21.5135 41.9976 21.7642C41.3369 22.015 40.865 22.4538 40.6763 23.1433C40.6448 23.206 40.5819 23.3 40.519 23.3C39.7325 23.3 38.9774 23.3 38.1909 23.3C38.128 23.3627 38.0966 23.3314 38.0651 23.3314ZM46.0559 26.4344C45.993 26.4344 45.93 26.4344 45.8671 26.4344C44.766 26.4344 43.6335 26.4344 42.5324 26.4657C42.1549 26.4657 41.8088 26.5598 41.4628 26.6538C40.7392 26.8732 40.3617 27.4374 40.3302 28.1583C40.2987 28.9105 40.6763 29.4747 41.3684 29.7881C41.9976 30.0702 42.6268 30.0702 43.2874 29.9762C45.1435 29.7568 46.2132 28.315 46.0559 26.4344Z" fill="white"/>
<path d="M73.3325 26.3065C73.3011 27.0588 73.4584 27.7797 73.8359 28.4065C74.4022 29.3469 75.283 29.817 76.3527 29.911C77.3279 30.0051 78.2088 29.8483 78.9953 29.1901C79.4043 28.8454 79.6559 28.4379 79.8132 27.9364C79.8447 27.811 79.8762 27.7483 80.0335 27.7483C80.7885 27.7483 81.575 27.7483 82.33 27.7483C82.3615 27.7483 82.3929 27.7483 82.4559 27.7797C82.4244 27.9051 82.4244 28.0618 82.3615 28.1871C81.8267 30.0051 80.6312 31.1961 78.838 31.729C77.3594 32.1991 75.8493 32.1364 74.3707 31.6036C72.3887 30.914 71.2247 29.4722 70.7528 27.4662C70.4068 25.9618 70.5012 24.4886 71.0674 23.0468C71.7281 21.3856 72.9236 20.2572 74.6538 19.7557C76.101 19.3169 77.5481 19.3483 78.9324 19.8184C81.0087 20.5393 82.1727 22.0438 82.5502 24.1752C82.6446 24.7707 82.5817 25.3976 82.6132 26.0244C82.6132 26.2438 82.5188 26.2752 82.33 26.2752C79.4357 26.2752 76.5414 26.2752 73.6471 26.2752C73.5842 26.3065 73.4584 26.3065 73.3325 26.3065ZM79.9705 24.3946C79.8447 22.7334 78.6178 21.511 76.6044 21.5423C74.528 21.5737 73.4269 23.1722 73.4269 24.3946C75.6291 24.3946 77.7998 24.3946 79.9705 24.3946Z" fill="white"/>
<path d="M28.7227 21.888C28.7227 21.1044 28.7227 20.3835 28.7227 19.6313C29.4148 19.6313 30.1383 19.6313 30.8619 19.6313C30.8619 18.4716 30.8619 17.3432 30.8619 16.2148C31.7428 16.2148 32.5922 16.2148 33.4731 16.2148C33.4731 17.3432 33.4731 18.4716 33.4731 19.6313C34.4798 19.6313 35.4865 19.6313 36.4932 19.6313C36.4932 20.3835 36.4932 21.1358 36.4932 21.888C35.518 21.888 34.5112 21.888 33.5045 21.888C33.5045 22.0134 33.5045 22.0761 33.5045 22.1701C33.5045 24.2074 33.5045 26.2761 33.5045 28.3134C33.5045 28.3761 33.5045 28.4388 33.5045 28.4701C33.5675 29.2537 33.8506 29.5672 34.6371 29.5985C35.2034 29.6299 35.8011 29.6299 36.3674 29.6299C36.4618 29.6299 36.5561 29.6299 36.6505 29.6299C36.6505 30.3821 36.6505 31.1343 36.6505 31.8866C36.5876 31.8866 36.5247 31.9179 36.4932 31.9179C35.518 31.9179 34.5427 31.9179 33.5989 31.8552C32.5922 31.7926 31.7743 31.4164 31.2709 30.4761C31.0192 30.006 30.9248 29.5045 30.9248 28.9716C30.9248 27.2478 30.9248 25.5239 30.9248 23.7686C30.9248 23.2044 30.9248 22.6716 30.9248 22.1074C30.9248 21.9507 30.8619 21.888 30.7046 21.888C30.1383 21.888 29.6035 21.888 29.0373 21.888C28.9114 21.888 28.8485 21.888 28.7227 21.888Z" fill="white"/>
<path d="M68.4857 31.8859C67.6363 31.8859 66.7869 31.8859 65.9375 31.8859C65.9375 26.3067 65.9375 20.7276 65.9375 15.1484C66.7869 15.1484 67.6363 15.1484 68.4857 15.1484C68.4857 20.6962 68.4857 26.2754 68.4857 31.8859Z" fill="white"/>
<path d="M83.7442 19.161C82.9263 19.161 82.2656 18.5028 82.2656 17.6566C82.2656 16.873 82.8948 16.2461 83.7442 16.2461C84.5622 16.2461 85.2228 16.873 85.2228 17.6566C85.1914 18.5028 84.5622 19.161 83.7442 19.161ZM83.7442 16.5909C83.115 16.5909 82.6431 17.061 82.6431 17.6566C82.6431 18.3148 83.115 18.8163 83.7442 18.8163C84.3734 18.8163 84.8453 18.3148 84.8453 17.6566C84.8453 17.061 84.3734 16.5909 83.7442 16.5909ZM83.4611 18.4401H83.0836V16.9356H83.7442C83.9644 16.9356 84.0588 16.967 84.1217 16.9983C84.279 17.0924 84.4049 17.2491 84.4049 17.4371C84.4049 17.6879 84.279 17.8446 84.0903 17.9073L84.4993 18.4715H84.0274L83.6499 17.9386H83.4611V18.4401ZM83.7128 17.5939C83.8386 17.5939 83.9015 17.5939 83.933 17.5625C83.9644 17.5312 83.9959 17.4998 83.9959 17.4371C83.9959 17.3745 83.9644 17.3118 83.933 17.3118C83.9015 17.3118 83.8386 17.2804 83.7128 17.2804H83.4611V17.5939H83.7128Z" fill="white"/>
<path fill-rule="evenodd" clip-rule="evenodd" d="M338 145V206.242C338 211.213 333.971 215.242 329 215.242H10C5.02942 215.242 1 211.213 1 206.242V134.5H48.4991V158.5H96.4991V204H144.499V180.327H191.238V113H241.499V128.087H289.455V145H337.219H338Z" fill="#D385D6" fill-opacity="0.3"/>
<path d="M329 0.5H10C4.75329 0.5 0.5 4.75329 0.5 10V206C0.5 211.247 4.75329 215.5 10 215.5H329C334.247 215.5 338.5 211.247 338.5 206V10C338.5 4.75329 334.247 0.5 329 0.5Z" stroke="url(#paint0_linear_2_75)"/>
<path opacity="0.5" d="M329 0H10C4.47715 0 0 4.47715 0 10V206C0 211.523 4.47715 216 10 216H329C334.523 216 339 211.523 339 206V10C339 4.47715 334.523 0 329 0Z" fill="url(#paint1_linear_2_75)"/>
<mask id="mask1_2_75" style="mask-type:alpha" maskUnits="userSpaceOnUse" x="311" y="145" width="27" height="63">
<path d="M311 145H338V208H311V145Z" fill="#D9D9D9"/>
</mask>
<g mask="url(#mask1_2_75)">
<g filter="url(#filter0_f_2_75)">
<path d="M342 138.367H323V195.841H342V138.367Z" fill="#D385D6"/>
</g>
</g>
<mask id="mask2_2_75" style="mask-type:alpha" maskUnits="userSpaceOnUse" x="1" y="135" width="27" height="57">
<path d="M28 135H1V192H28V135Z" fill="#D9D9D9"/>
</mask>
<g mask="url(#mask2_2_75)">
<g filter="url(#filter1_f_2_75)">
<path d="M17 129H-5V181H17V129Z" fill="#D385D6"/>
</g>
</g>
<path d="M301.018 163.941H281.477V199.058H301.018V163.941Z" fill="#FF5F00"/>
<path d="M282.718 181.501C282.715 178.119 283.481 174.781 284.959 171.739C286.437 168.697 288.588 166.031 291.248 163.943C287.953 161.353 283.997 159.743 279.83 159.296C275.663 158.848 271.455 159.582 267.686 161.414C263.917 163.245 260.739 166.1 258.516 169.653C256.292 173.205 255.113 177.311 255.113 181.501C255.113 185.692 256.292 189.798 258.516 193.35C260.739 196.902 263.917 199.757 267.686 201.589C271.455 203.42 275.663 204.154 279.83 203.707C283.997 203.26 287.953 201.649 291.248 199.06C288.588 196.972 286.437 194.306 284.959 191.264C283.481 188.222 282.715 184.883 282.718 181.501Z" fill="#EB001B"/>
<path d="M327.384 181.501C327.384 185.692 326.205 189.798 323.982 193.35C321.759 196.902 318.581 199.757 314.812 201.589C311.043 203.42 306.834 204.154 302.668 203.707C298.501 203.26 294.545 201.649 291.25 199.06C293.908 196.97 296.057 194.303 297.535 191.262C299.012 188.22 299.78 184.883 299.78 181.501C299.78 178.12 299.012 174.782 297.535 171.741C296.057 168.699 293.908 166.033 291.25 163.943C294.545 161.353 298.501 159.743 302.668 159.296C306.834 158.848 311.043 159.582 314.812 161.414C318.581 163.245 321.759 166.1 323.982 169.653C326.205 173.205 327.384 177.311 327.384 181.501Z" fill="#F79E1B"/>
<path d="M325.253 195.34V194.621H325.543V194.474H324.805V194.621H325.095V195.34H325.253ZM326.686 195.34V194.473H326.46L326.2 195.069L325.939 194.473H325.713V195.34H325.873V194.686L326.117 195.249H326.283L326.527 194.684V195.34H326.686Z" fill="#F79E1B"/>
<path d="M194.696 21.3C195.202 21.3 195.642 21.399 196.038 21.597C196.423 21.795 196.72 22.07 196.94 22.422C197.149 22.774 197.259 23.192 197.259 23.665C197.259 24.204 197.105 24.666 196.808 25.062C196.511 25.458 196.115 25.722 195.62 25.854L197.347 29H196.269L194.674 26.041H192.705V29H191.748V21.3H194.696ZM192.705 25.161H194.619C195.125 25.161 195.521 25.029 195.829 24.754C196.126 24.49 196.28 24.127 196.28 23.665C196.28 23.225 196.126 22.862 195.829 22.587C195.521 22.323 195.125 22.18 194.63 22.18H192.705V25.161ZM198.183 24.688C198.403 24.259 198.722 23.929 199.129 23.687C199.525 23.445 199.987 23.324 200.515 23.324C201.021 23.324 201.483 23.434 201.879 23.643C202.275 23.863 202.583 24.171 202.814 24.567C203.034 24.974 203.155 25.447 203.177 25.986C203.177 26.074 203.166 26.195 203.155 26.371H198.799V26.448C198.81 26.998 198.975 27.438 199.305 27.768C199.624 28.098 200.042 28.263 200.57 28.263C200.966 28.263 201.307 28.164 201.593 27.966C201.879 27.768 202.066 27.482 202.165 27.119H203.078C202.968 27.691 202.693 28.164 202.253 28.527C201.813 28.89 201.274 29.066 200.636 29.066C200.075 29.066 199.591 28.956 199.173 28.714C198.755 28.472 198.425 28.142 198.194 27.702C197.963 27.262 197.853 26.767 197.853 26.195C197.853 25.623 197.963 25.128 198.183 24.688ZM202.242 25.623C202.198 25.15 202.011 24.776 201.703 24.512C201.395 24.248 200.999 24.116 200.526 24.116C200.097 24.116 199.723 24.259 199.404 24.534C199.074 24.82 198.898 25.183 198.854 25.623H202.242ZM204.888 27.152C204.899 27.493 205.042 27.768 205.328 27.977C205.614 28.197 205.977 28.296 206.428 28.296C206.824 28.296 207.143 28.219 207.385 28.065C207.627 27.911 207.759 27.702 207.759 27.438C207.759 27.218 207.693 27.053 207.583 26.932C207.462 26.822 207.308 26.734 207.121 26.69C206.934 26.646 206.67 26.602 206.329 26.558C205.845 26.503 205.449 26.426 205.141 26.327C204.833 26.239 204.58 26.085 204.393 25.876C204.195 25.667 204.107 25.381 204.107 25.007C204.107 24.677 204.195 24.391 204.382 24.127C204.569 23.874 204.822 23.676 205.152 23.533C205.471 23.39 205.834 23.313 206.241 23.313C206.901 23.313 207.429 23.467 207.847 23.775C208.265 24.083 208.496 24.523 208.54 25.095H207.638C207.594 24.809 207.451 24.567 207.209 24.369C206.956 24.182 206.648 24.083 206.274 24.083C205.889 24.083 205.581 24.171 205.35 24.325C205.108 24.479 204.998 24.688 204.998 24.941C204.998 25.139 205.053 25.282 205.163 25.381C205.273 25.491 205.405 25.557 205.581 25.59C205.757 25.634 206.021 25.667 206.373 25.711C206.857 25.777 207.264 25.854 207.583 25.953C207.902 26.063 208.155 26.228 208.353 26.448C208.551 26.679 208.65 26.987 208.65 27.372C208.65 27.713 208.551 28.01 208.353 28.263C208.155 28.527 207.88 28.725 207.55 28.857C207.209 29 206.835 29.066 206.428 29.066C205.691 29.066 205.097 28.901 204.657 28.56C204.217 28.23 203.986 27.757 203.986 27.152H204.888ZM210.543 21.388C210.653 21.498 210.708 21.641 210.708 21.806C210.708 21.982 210.653 22.114 210.543 22.224C210.433 22.334 210.29 22.389 210.125 22.389C209.949 22.389 209.817 22.334 209.707 22.224C209.597 22.114 209.542 21.982 209.542 21.806C209.542 21.641 209.597 21.498 209.707 21.388C209.817 21.278 209.949 21.223 210.125 21.223C210.29 21.223 210.433 21.278 210.543 21.388ZM209.674 23.39H210.576V29H209.674V23.39ZM217.135 21.3V29H216.354L216.233 28.098C215.76 28.747 215.122 29.066 214.308 29.066C213.78 29.066 213.318 28.956 212.911 28.725C212.504 28.505 212.185 28.175 211.954 27.735C211.723 27.306 211.613 26.789 211.613 26.195C211.613 25.634 211.723 25.139 211.954 24.699C212.185 24.27 212.504 23.929 212.922 23.687C213.329 23.445 213.791 23.324 214.308 23.324C214.759 23.324 215.144 23.412 215.474 23.577C215.793 23.742 216.046 23.962 216.233 24.248V21.3H217.135ZM215.353 28.01C215.639 27.834 215.859 27.592 216.013 27.284C216.167 26.976 216.244 26.613 216.244 26.217C216.244 25.821 216.167 25.458 216.013 25.139C215.859 24.82 215.639 24.567 215.353 24.391C215.067 24.215 214.748 24.127 214.396 24.127C213.835 24.127 213.384 24.325 213.043 24.71C212.702 25.095 212.537 25.59 212.537 26.195C212.537 26.811 212.702 27.306 213.043 27.691C213.384 28.076 213.835 28.263 214.396 28.263C214.748 28.263 215.067 28.186 215.353 28.01ZM218.496 24.688C218.716 24.259 219.035 23.929 219.442 23.687C219.838 23.445 220.3 23.324 220.828 23.324C221.334 23.324 221.796 23.434 222.192 23.643C222.588 23.863 222.896 24.171 223.127 24.567C223.347 24.974 223.468 25.447 223.49 25.986C223.49 26.074 223.479 26.195 223.468 26.371H219.112V26.448C219.123 26.998 219.288 27.438 219.618 27.768C219.937 28.098 220.355 28.263 220.883 28.263C221.279 28.263 221.62 28.164 221.906 27.966C222.192 27.768 222.379 27.482 222.478 27.119H223.391C223.281 27.691 223.006 28.164 222.566 28.527C222.126 28.89 221.587 29.066 220.949 29.066C220.388 29.066 219.904 28.956 219.486 28.714C219.068 28.472 218.738 28.142 218.507 27.702C218.276 27.262 218.166 26.767 218.166 26.195C218.166 25.623 218.276 25.128 218.496 24.688ZM222.555 25.623C222.511 25.15 222.324 24.776 222.016 24.512C221.708 24.248 221.312 24.116 220.839 24.116C220.41 24.116 220.036 24.259 219.717 24.534C219.387 24.82 219.211 25.183 219.167 25.623H222.555ZM228.908 23.94C229.326 24.358 229.535 24.996 229.535 25.876V29H228.633V25.931C228.633 25.359 228.501 24.919 228.237 24.611C227.973 24.303 227.599 24.149 227.115 24.149C226.587 24.149 226.169 24.336 225.872 24.699C225.564 25.073 225.421 25.568 225.421 26.195V29H224.519V23.39H225.3L225.421 24.149C225.839 23.599 226.455 23.324 227.269 23.324C227.951 23.324 228.49 23.533 228.908 23.94ZM231.059 24.215H230.047V23.39H231.059V21.817H231.961V23.39H233.38V24.215H231.961V27.526C231.961 27.768 232.005 27.933 232.093 28.032C232.181 28.131 232.346 28.175 232.577 28.175H233.556V29H232.522C231.994 29 231.609 28.89 231.389 28.648C231.169 28.417 231.059 28.043 231.059 27.537V24.215ZM238.21 28.703C237.792 28.461 237.462 28.131 237.231 27.691C236.989 27.262 236.879 26.767 236.879 26.195C236.879 25.634 236.989 25.139 237.231 24.699C237.462 24.27 237.792 23.929 238.21 23.687C238.628 23.445 239.112 23.324 239.662 23.324C240.201 23.324 240.685 23.445 241.103 23.687C241.521 23.929 241.851 24.27 242.093 24.699C242.324 25.139 242.445 25.634 242.445 26.195C242.445 26.767 242.324 27.262 242.093 27.691C241.851 28.131 241.521 28.461 241.103 28.703C240.685 28.945 240.201 29.066 239.662 29.066C239.112 29.066 238.628 28.945 238.21 28.703ZM240.63 27.999C240.916 27.823 241.136 27.581 241.29 27.262C241.444 26.954 241.521 26.591 241.521 26.195C241.521 25.799 241.444 25.447 241.29 25.128C241.136 24.82 240.916 24.567 240.63 24.391C240.344 24.215 240.025 24.127 239.662 24.127C239.288 24.127 238.969 24.215 238.683 24.391C238.397 24.567 238.188 24.82 238.034 25.128C237.88 25.447 237.803 25.799 237.803 26.195C237.803 26.591 237.88 26.954 238.034 27.262C238.188 27.581 238.397 27.823 238.683 27.999C238.969 28.175 239.288 28.263 239.662 28.263C240.025 28.263 240.344 28.175 240.63 27.999ZM243.789 23.39V22.763C243.789 22.268 243.899 21.905 244.13 21.663C244.361 21.421 244.735 21.3 245.252 21.3H246.286V22.125H245.307C245.087 22.125 244.922 22.18 244.834 22.268C244.735 22.367 244.691 22.521 244.691 22.741V23.39H246.275V24.215H244.691V29H243.789V24.215H242.777V23.39H243.789ZM255.01 28.175V29H254.515C254.152 29 253.899 28.934 253.745 28.78C253.591 28.637 253.503 28.417 253.503 28.131C253.063 28.758 252.436 29.066 251.622 29.066C250.995 29.066 250.489 28.923 250.115 28.626C249.741 28.34 249.554 27.933 249.554 27.427C249.554 26.866 249.741 26.437 250.126 26.129C250.511 25.832 251.072 25.678 251.809 25.678H253.459V25.293C253.459 24.93 253.327 24.644 253.085 24.435C252.843 24.237 252.502 24.127 252.062 24.127C251.666 24.127 251.347 24.215 251.094 24.391C250.841 24.567 250.687 24.787 250.632 25.073H249.73C249.796 24.523 250.038 24.094 250.456 23.786C250.874 23.478 251.424 23.324 252.106 23.324C252.821 23.324 253.371 23.5 253.767 23.852C254.163 24.204 254.361 24.699 254.361 25.348V27.768C254.361 28.043 254.482 28.175 254.735 28.175H255.01ZM253.459 26.437H251.721C250.885 26.437 250.467 26.756 250.467 27.372C250.467 27.658 250.577 27.878 250.797 28.043C251.017 28.219 251.314 28.296 251.688 28.296C252.238 28.296 252.667 28.153 252.986 27.867C253.294 27.581 253.459 27.196 253.459 26.712V26.437ZM259.375 26.481C259.408 27.009 259.617 27.427 260.002 27.735C260.376 28.043 260.86 28.197 261.454 28.197C261.982 28.197 262.4 28.087 262.73 27.856C263.06 27.625 263.225 27.306 263.225 26.888C263.225 26.591 263.126 26.349 262.95 26.173C262.774 25.997 262.543 25.876 262.257 25.788C261.971 25.7 261.597 25.623 261.113 25.535C260.343 25.403 259.727 25.194 259.276 24.886C258.814 24.589 258.594 24.105 258.594 23.423C258.594 22.994 258.704 22.609 258.924 22.279C259.144 21.949 259.452 21.685 259.848 21.498C260.244 21.322 260.706 21.223 261.223 21.223C261.762 21.223 262.246 21.322 262.664 21.52C263.082 21.718 263.412 22.004 263.654 22.356C263.896 22.708 264.028 23.115 264.061 23.577H263.115C263.049 23.137 262.851 22.774 262.51 22.499C262.158 22.235 261.729 22.092 261.223 22.092C260.706 22.092 260.299 22.213 260.002 22.433C259.694 22.653 259.551 22.972 259.551 23.368C259.551 23.665 259.639 23.896 259.815 24.061C259.991 24.226 260.211 24.347 260.497 24.435C260.772 24.523 261.157 24.6 261.641 24.677C262.411 24.809 263.027 25.029 263.489 25.337C263.951 25.645 264.182 26.129 264.182 26.8C264.182 27.24 264.061 27.636 263.83 27.977C263.599 28.329 263.28 28.593 262.862 28.78C262.444 28.978 261.971 29.066 261.443 29.066C260.838 29.066 260.31 28.967 259.87 28.747C259.419 28.527 259.067 28.23 258.825 27.834C258.583 27.438 258.451 26.987 258.429 26.481H259.375ZM265.638 24.215H264.626V23.39H265.638V21.817H266.54V23.39H267.959V24.215H266.54V27.526C266.54 27.768 266.584 27.933 266.672 28.032C266.76 28.131 266.925 28.175 267.156 28.175H268.135V29H267.101C266.573 29 266.188 28.89 265.968 28.648C265.748 28.417 265.638 28.043 265.638 27.537V24.215ZM273.938 28.175V29H273.443C273.08 29 272.827 28.934 272.673 28.78C272.519 28.637 272.431 28.417 272.431 28.131C271.991 28.758 271.364 29.066 270.55 29.066C269.923 29.066 269.417 28.923 269.043 28.626C268.669 28.34 268.482 27.933 268.482 27.427C268.482 26.866 268.669 26.437 269.054 26.129C269.439 25.832 270 25.678 270.737 25.678H272.387V25.293C272.387 24.93 272.255 24.644 272.013 24.435C271.771 24.237 271.43 24.127 270.99 24.127C270.594 24.127 270.275 24.215 270.022 24.391C269.769 24.567 269.615 24.787 269.56 25.073H268.658C268.724 24.523 268.966 24.094 269.384 23.786C269.802 23.478 270.352 23.324 271.034 23.324C271.749 23.324 272.299 23.5 272.695 23.852C273.091 24.204 273.289 24.699 273.289 25.348V27.768C273.289 28.043 273.41 28.175 273.663 28.175H273.938ZM272.387 26.437H270.649C269.813 26.437 269.395 26.756 269.395 27.372C269.395 27.658 269.505 27.878 269.725 28.043C269.945 28.219 270.242 28.296 270.616 28.296C271.166 28.296 271.595 28.153 271.914 27.867C272.222 27.581 272.387 27.196 272.387 26.712V26.437ZM278.845 23.665C279.252 23.896 279.571 24.226 279.802 24.655C280.033 25.095 280.154 25.601 280.154 26.195C280.154 26.767 280.033 27.262 279.802 27.691C279.571 28.131 279.252 28.461 278.845 28.703C278.427 28.945 277.965 29.066 277.459 29.066C276.997 29.066 276.612 28.989 276.293 28.824C275.963 28.659 275.71 28.428 275.534 28.142L275.413 29H274.632V21.3H275.534V24.292C275.996 23.654 276.645 23.324 277.459 23.324C277.976 23.324 278.438 23.445 278.845 23.665ZM278.713 27.691C279.054 27.306 279.23 26.811 279.23 26.195C279.23 25.59 279.054 25.095 278.713 24.71C278.372 24.325 277.921 24.127 277.371 24.127C277.008 24.127 276.689 24.215 276.403 24.391C276.117 24.567 275.908 24.809 275.754 25.117C275.6 25.425 275.523 25.777 275.523 26.173C275.523 26.58 275.6 26.943 275.754 27.262C275.908 27.581 276.117 27.823 276.403 27.999C276.689 28.175 277.008 28.263 277.371 28.263C277.921 28.263 278.372 28.076 278.713 27.691ZM281.184 21.3H282.086V29H281.184V21.3ZM283.454 24.688C283.674 24.259 283.993 23.929 284.4 23.687C284.796 23.445 285.258 23.324 285.786 23.324C286.292 23.324 286.754 23.434 287.15 23.643C287.546 23.863 287.854 24.171 288.085 24.567C288.305 24.974 288.426 25.447 288.448 25.986C288.448 26.074 288.437 26.195 288.426 26.371H284.07V26.448C284.081 26.998 284.246 27.438 284.576 27.768C284.895 28.098 285.313 28.263 285.841 28.263C286.237 28.263 286.578 28.164 286.864 27.966C287.15 27.768 287.337 27.482 287.436 27.119H288.349C288.239 27.691 287.964 28.164 287.524 28.527C287.084 28.89 286.545 29.066 285.907 29.066C285.346 29.066 284.862 28.956 284.444 28.714C284.026 28.472 283.696 28.142 283.465 27.702C283.234 27.262 283.124 26.767 283.124 26.195C283.124 25.623 283.234 25.128 283.454 24.688ZM287.513 25.623C287.469 25.15 287.282 24.776 286.974 24.512C286.666 24.248 286.27 24.116 285.797 24.116C285.368 24.116 284.994 24.259 284.675 24.534C284.345 24.82 284.169 25.183 284.125 25.623H287.513ZM289.159 22.345C289.357 21.993 289.632 21.718 289.984 21.52C290.336 21.322 290.721 21.223 291.15 21.223C291.579 21.223 291.964 21.322 292.316 21.52C292.668 21.718 292.943 21.993 293.141 22.334C293.339 22.686 293.449 23.071 293.449 23.489C293.449 23.918 293.339 24.303 293.141 24.644C292.943 24.985 292.668 25.249 292.316 25.447C291.964 25.645 291.579 25.744 291.15 25.744C290.721 25.744 290.336 25.645 289.984 25.447C289.632 25.249 289.357 24.985 289.159 24.644C288.961 24.303 288.862 23.918 288.862 23.5C288.862 23.082 288.961 22.697 289.159 22.345ZM292.723 22.554C292.569 22.279 292.349 22.059 292.074 21.905C291.799 21.751 291.491 21.663 291.15 21.663C290.809 21.663 290.501 21.751 290.226 21.905C289.951 22.059 289.742 22.279 289.588 22.554C289.434 22.84 289.357 23.148 289.357 23.5C289.357 23.852 289.434 24.16 289.588 24.435C289.742 24.71 289.951 24.919 290.226 25.073C290.501 25.227 290.809 25.304 291.15 25.304C291.491 25.304 291.799 25.227 292.074 25.073C292.349 24.919 292.569 24.699 292.723 24.424C292.877 24.149 292.954 23.841 292.954 23.489C292.954 23.148 292.877 22.84 292.723 22.554ZM291.249 22.235C291.535 22.235 291.777 22.312 291.953 22.455C292.129 22.609 292.217 22.796 292.217 23.027C292.217 23.214 292.162 23.368 292.063 23.489C291.953 23.621 291.81 23.709 291.634 23.753L292.228 24.743H291.689L291.161 23.852H290.776V24.743H290.292V22.235H291.249ZM290.776 23.445H291.227C291.359 23.445 291.48 23.412 291.568 23.335C291.656 23.269 291.711 23.159 291.711 23.027C291.711 22.906 291.667 22.807 291.579 22.741C291.491 22.675 291.37 22.642 291.227 22.642H290.776V23.445ZM296.92 23.39H297.866L299.263 27.955L300.737 23.39H301.573L302.97 27.955L304.433 23.39H305.346L303.476 29H302.486L301.133 24.831L299.725 29L298.735 29.011L296.92 23.39ZM307.024 28.703C306.606 28.461 306.276 28.131 306.045 27.691C305.803 27.262 305.693 26.767 305.693 26.195C305.693 25.634 305.803 25.139 306.045 24.699C306.276 24.27 306.606 23.929 307.024 23.687C307.442 23.445 307.926 23.324 308.476 23.324C309.015 23.324 309.499 23.445 309.917 23.687C310.335 23.929 310.665 24.27 310.907 24.699C311.138 25.139 311.259 25.634 311.259 26.195C311.259 26.767 311.138 27.262 310.907 27.691C310.665 28.131 310.335 28.461 309.917 28.703C309.499 28.945 309.015 29.066 308.476 29.066C307.926 29.066 307.442 28.945 307.024 28.703ZM309.444 27.999C309.73 27.823 309.95 27.581 310.104 27.262C310.258 26.954 310.335 26.591 310.335 26.195C310.335 25.799 310.258 25.447 310.104 25.128C309.95 24.82 309.73 24.567 309.444 24.391C309.158 24.215 308.839 24.127 308.476 24.127C308.102 24.127 307.783 24.215 307.497 24.391C307.211 24.567 307.002 24.82 306.848 25.128C306.694 25.447 306.617 25.799 306.617 26.195C306.617 26.591 306.694 26.954 306.848 27.262C307.002 27.581 307.211 27.823 307.497 27.999C307.783 28.175 308.102 28.263 308.476 28.263C308.839 28.263 309.158 28.175 309.444 27.999ZM315.143 23.39V24.27H314.692C314.153 24.27 313.768 24.457 313.537 24.809C313.306 25.172 313.196 25.612 313.196 26.14V29H312.294V23.39H313.075L313.196 24.237C313.35 23.984 313.559 23.775 313.823 23.621C314.076 23.467 314.428 23.39 314.89 23.39H315.143ZM315.968 21.3H316.87V29H315.968V21.3ZM323.429 21.3V29H322.648L322.527 28.098C322.054 28.747 321.416 29.066 320.602 29.066C320.074 29.066 319.612 28.956 319.205 28.725C318.798 28.505 318.479 28.175 318.248 27.735C318.017 27.306 317.907 26.789 317.907 26.195C317.907 25.634 318.017 25.139 318.248 24.699C318.479 24.27 318.798 23.929 319.216 23.687C319.623 23.445 320.085 23.324 320.602 23.324C321.053 23.324 321.438 23.412 321.768 23.577C322.087 23.742 322.34 23.962 322.527 24.248V21.3H323.429ZM321.647 28.01C321.933 27.834 322.153 27.592 322.307 27.284C322.461 26.976 322.538 26.613 322.538 26.217C322.538 25.821 322.461 25.458 322.307 25.139C322.153 24.82 321.933 24.567 321.647 24.391C321.361 24.215 321.042 24.127 320.69 24.127C320.129 24.127 319.678 24.325 319.337 24.71C318.996 25.095 318.831 25.59 318.831 26.195C318.831 26.811 318.996 27.306 319.337 27.691C319.678 28.076 320.129 28.263 320.69 28.263C321.042 28.263 321.361 28.186 321.647 28.01Z" fill="#6A6A6A"/>
<defs>
<filter id="filter0_f_2_75" x="315" y="130.367" width="35" height="73.474" filterUnits="userSpaceOnUse" color-interpolation-filters="sRGB">
<feFlood flood-opacity="0" result="BackgroundImageFix"/>
<feBlend mode="normal" in="SourceGraphic" in2="BackgroundImageFix" result="shape"/>
<feGaussianBlur stdDeviation="4" result="effect1_foregroundBlur_2_75"/>
</filter>
<filter id="filter1_f_2_75" x="-14" y="120" width="40" height="70" filterUnits="userSpaceOnUse" color-interpolation-filters="sRGB">
<feFlood flood-opacity="0" result="BackgroundImageFix"/>
<feBlend mode="normal" in="SourceGraphic" in2="BackgroundImageFix" result="shape"/>
<feGaussianBlur stdDeviation="4.5" result="effect1_foregroundBlur_2_75"/>
</filter>
<linearGradient id="paint0_linear_2_75" x1="7.42886e-06" y1="-4.50966e-05" x2="342.641" y2="210.061" gradientUnits="userSpaceOnUse">
<stop stop-color="white"/>
<stop offset="1" stop-color="white" stop-opacity="0"/>
</linearGradient>
<linearGradient id="paint1_linear_2_75" x1="186" y1="116.5" x2="306.5" y2="-132.5" gradientUnits="userSpaceOnUse">
<stop stop-color="white" stop-opacity="0"/>
<stop offset="1" stop-color="white"/>
</linearGradient>
</defs>
</svg>
